<mxfile host="app.diagrams.net" modified="2023-06-20T10:07:36.876Z" agent="Mozilla/5.0 (Macintosh; Intel Mac OS X 10_15_7) AppleWebKit/537.36 (KHTML, like Gecko) Chrome/114.0.0.0 Safari/537.36" version="21.5.0" etag="6gbEQsh9MEkXmHx5wejb" type="github">
  <diagram name="第 1 页" id="2Vnw62YYS_jXsldepSf_">
    <mxGraphModel>
      <root>
        <mxCell id="0" />
        <mxCell id="1" parent="0" />
      </root>
    </mxGraphModel>
  </diagram>
</mxfile>
